{"title":"Elementary S02E03 HDTV 480p x264 AAC E-Subs [GWC].mp4","uid":9034504,"size":154097247,"categoryP":"video","categoryS":"tv_shows","magnet":"?xt=urn:btih:4e1ff174816cf5abb45738f0d4999023797046b1&amp;dn=Elementary+S02E03+HDTV+480p+x264+AAC+E-Subs+%5BGWC%5D.mp4&amp;tr=udp%3A%2F%2Ftracker.openbittorrent.com%3A80&amp;tr=udp%3A%2F%2Fopen.demonii.com%3A1337&amp;tr=udp%3A%2F%2Ftracker.coppersurfer.tk%3A6969&amp;tr=udp%3A%2F%2Fexodus.desync.com%3A6969","seeders":3,"leechers":0,"uploader":"canc232","files":1,"time":1381483268,"description":"Elementary S02E03 HDTV 480p x264 AAC E-Subs [GWC]\n\nSCREENS :\n &lt;a href=&quot;\nhttp://s20.postimg.org/kdo488d19/Elementary_S02_E03_HDTV_480p_x264_AAC_E_Subs_GWC.jpg&quot; rel=&quot;nofollow&quot; target=&quot;_NEW&quot;&gt;\nhttp://s20.postimg.org/kdo488d19/Elementary_S02_E03_HDTV_480p_x264_AAC_E_Subs_GWC.jpg&lt;/a&gt;\n &lt;a href=&quot;\nhttp://s20.postimg.org/o8riasw71/Elementary_S02_E03_HDTV_480p_x264_AAC_E_Subs_GWC.jpg&quot; rel=&quot;nofollow&quot; target=&quot;_NEW&quot;&gt;\nhttp://s20.postimg.org/o8riasw71/Elementary_S02_E03_HDTV_480p_x264_AAC_E_Subs_GWC.jpg&lt;/a&gt;\n &lt;a href=&quot;\nhttp://s20.postimg.org/aqklyik1p/Elementary_S02_E03_HDTV_480p_x264_AAC_E_Subs_GWC.jpg&quot; rel=&quot;nofollow&quot; target=&quot;_NEW&quot;&gt;\nhttp://s20.postimg.org/aqklyik1p/Elementary_S02_E03_HDTV_480p_x264_AAC_E_Subs_GWC.jpg&lt;/a&gt;\n\n\n\nMEDIA INFO :\n\nGeneral \nFormat : MPEG-4 \nFormat profile : Base Media \nCodec ID : isom \nFile size : 147 MiB \nDuration : 43mn 30s \nOverall bit rate mode : Variable \nOverall bit rate : 472 Kbps \n\nVideo \nFormat : AVC \nFormat profile : &lt;a class=&quot;__cf_email__&quot; href=&quot;/cdn-cgi/l/email-protection&quot; data-cfemail=&quot;d991b0beb19995eaf7e9&quot;&gt;[email&amp;#160;protected]&lt;/a&gt;&lt;script cf-hash='f9e31' type=&quot;text/javascript&quot;&gt;\n/* &lt;![CDATA[ */!function(){try{var t=&quot;currentScript&quot;in document?document.currentScript:function(){for(var t=document.getElementsByTagName(&quot;script&quot;),e=t.length;e--;)if(t[e].getAttribute(&quot;cf-hash&quot;))return t[e]}();if(t&amp;&amp;t.previousSibling){var e,r,n,i,c=t.previousSibling,a=c.getAttribute(&quot;data-cfemail&quot;);if(a){for(e=&quot;&quot;,r=parseInt(a.substr(0,2),16),n=2;a.length-n;n+=2)i=parseInt(a.substr(n,2),16)^r,e+=String.fromCharCode(i);e=document.createTextNode(e),c.parentNode.replaceChild(e,c)}}}catch(u){}}();/* ]]&gt; */&lt;/script&gt; \nFormat settings, CABAC : Yes \nFormat settings, ReFrames : 4 frames \nDuration : 43mn 29s \nBit rate : 416 Kbps \nWidth : 720 pixels \nHeight : 404 pixels \nDisplay aspect ratio : 16:9 \nFrame rate mode : Constant \nFrame rate : 23.976 fps \nStream size : 129 MiB (88%) \nTitle : Elementary S02E03 HDTV 480p x264 AAC E-Subs [GWC] \nWriting library : x264 core \n\nAudio \nFormat : AAC \nFormat profile : HE-AAC / LC \nDuration : 43mn 30s \nBit rate mode : Variable \nChannel(s) : 2 channels \nSampling rate : 48.0 KHz / 24.0 KHz \nStream size : 16.4 MiB (11%) \nLanguage : English \n\nText \nFormat : Timed Text \nCodec ID : tx3g \nDuration : 42mn 57s \nStream size : 34.9 KiB (0%) \nTitle : English Subtitle by elderman \nLanguage : English","torrent":{"xt":"urn:btih:4e1ff174816cf5abb45738f0d4999023797046b1","amp;dn":"Elementary+S02E03+HDTV+480p+x264+AAC+E-Subs+%5BGWC%5D.mp4","amp;tr":["udp%3A%2F%2Ftracker.openbittorrent.com%3A80","udp%3A%2F%2Fopen.demonii.com%3A1337","udp%3A%2F%2Ftracker.coppersurfer.tk%3A6969","udp%3A%2F%2Fexodus.desync.com%3A6969"],"infoHash":"4e1ff174816cf5abb45738f0d4999023797046b1","infoHashBuffer":{"type":"Buffer","data":[78,31,241,116,129,108,245,171,180,87,56,240,212,153,144,35,121,112,70,177]},"announce":[],"urlList":[]}}